<?xml version="1.0" encoding="utf-8"?>
<!-- Generator: Adobe Illustrator 22.0.0, SVG Export Plug-In . SVG Version: 6.00 Build 0)  -->
<svg version="1.1" id="Calque_1" xmlns="http://www.w3.org/2000/svg" xmlns:xlink="http://www.w3.org/1999/xlink" x="0px" y="0px"
	 viewBox="0 0 632.3 635.4" style="enable-background:new 0 0 632.3 635.4;" xml:space="preserve">
<style type="text/css">
	.st0{opacity:0.696;enable-background:new    ;}
</style>
<g>
	<g>
		<g>
			<g>
				<g>
					<g class="st0">
						<g>
							<g>
								<g>
									<path d="M66.9,33.5c0,18.5-15,33.5-33.5,33.5S0,51.9,0,33.5S15,0,33.5,0S66.9,15,66.9,33.5"/>
									<path d="M137.6,33.5c0,18.5-15,33.5-33.4,33.5s-33.5-15-33.5-33.5S85.7,0,104.1,0S137.6,15,137.6,33.5"/>
									<path d="M208.3,33.5c0,18.5-15,33.5-33.4,33.5s-33.4-15-33.4-33.5S156.3,0,174.8,0S208.3,15,208.3,33.5"/>
									<path d="M278.9,33.5c0,18.5-15,33.5-33.4,33.5S212,51.9,212,33.5S227,0,245.5,0S278.9,15,278.9,33.5"/>
									<path d="M491,33.5c0,18.5-15,33.5-33.5,33.5s-33.5-15-33.5-33.5S439.1,0,457.5,0C476,0,491,15,491,33.5"/>
									<path d="M561.7,33.5c0,18.5-15,33.5-33.5,33.5c-18.5,0-33.5-15-33.5-33.5S509.7,0,528.2,0C546.7,0,561.7,15,561.7,33.5"/>
									<path d="M66.9,104.5c0,18.5-15,33.5-33.5,33.5S0,123,0,104.5s15-33.5,33.5-33.5S66.9,86.1,66.9,104.5"/>
									<path d="M137.6,104.5c0,18.5-15,33.5-33.4,33.5s-33.4-15-33.4-33.4s15-33.4,33.4-33.4S137.6,86.1,137.6,104.5"/>
									<path d="M208.3,104.5c0,18.5-15,33.5-33.4,33.5s-33.4-15-33.4-33.4s15-33.4,33.4-33.4S208.3,86.1,208.3,104.5"/>
									<path d="M208.3,33.5c0,18.5-15,33.5-33.4,33.5s-33.4-15-33.4-33.5S156.3,0,174.8,0S208.3,15,208.3,33.5"/>
									<path d="M278.9,104.5c0,18.5-15,33.5-33.4,33.5S212,123,212,104.5s15-33.4,33.4-33.4S278.9,86.1,278.9,104.5"/>
									<path d="M349.6,104.5c0,18.5-15,33.5-33.5,33.5s-33.5-15-33.5-33.4s15-33.4,33.5-33.4C334.6,71.1,349.6,86.1,349.6,104.5"
										/>
									<path d="M561.7,104.5c0,18.5-15,33.5-33.5,33.5c-18.5,0-33.5-15-33.5-33.4s15-33.4,33.5-33.4
										C546.7,71.1,561.7,86.1,561.7,104.5"/>
									<path d="M632.3,104.5c0,18.5-15,33.5-33.5,33.5c-18.5,0-33.5-15-33.5-33.4s15-33.4,33.5-33.4
										C617.4,71.1,632.3,86.1,632.3,104.5"/>
									<path d="M66.9,175.6c0,18.5-15,33.4-33.5,33.4S0,194.1,0,175.6s15-33.4,33.5-33.4S66.9,157.1,66.9,175.6"/>
									<path d="M137.6,175.6c0,18.5-15,33.4-33.4,33.4s-33.4-15-33.4-33.4s15-33.4,33.4-33.4S137.6,157.1,137.6,175.6"/>
									<path d="M278.9,175.6c0,18.5-15,33.4-33.4,33.4s-33.4-15-33.4-33.4s15-33.4,33.4-33.4S278.9,157.1,278.9,175.6"/>
									<path d="M349.6,175.6c0,18.5-15,33.4-33.5,33.4s-33.5-15-33.5-33.4s15-33.4,33.5-33.4C334.6,142.1,349.6,157.1,349.6,175.6
										"/>
									<path d="M561.7,175.6c0,18.5-15,33.4-33.5,33.4c-18.5,0-33.5-15-33.5-33.4s15-33.4,33.5-33.4
										C546.7,142.1,561.7,157.1,561.7,175.6"/>
									<path d="M632.3,175.6c0,18.5-15,33.4-33.5,33.4c-18.5,0-33.5-15-33.5-33.4s15-33.4,33.5-33.4S632.3,157.1,632.3,175.6"/>
									<path d="M66.9,246.6c0,18.5-15,33.5-33.5,33.5S0,265.1,0,246.6s15-33.4,33.5-33.4S66.9,228.2,66.9,246.6"/>
									<path d="M137.6,246.6c0,18.5-15,33.5-33.4,33.5s-33.4-15-33.4-33.4s15-33.4,33.4-33.4S137.6,228.2,137.6,246.6"/>
									<path d="M278.9,246.6c0,18.5-15,33.5-33.4,33.5s-33.4-15-33.4-33.4s15-33.4,33.4-33.4S278.9,228.2,278.9,246.6"/>
									<path d="M349.6,246.6c0,18.5-15,33.5-33.5,33.5s-33.5-15-33.5-33.4s15-33.4,33.5-33.4C334.6,213.2,349.6,228.2,349.6,246.6
										"/>
									<path d="M561.7,246.6c0,18.5-15,33.5-33.5,33.5c-18.5,0-33.5-15-33.5-33.4s15-33.4,33.5-33.4
										C546.7,213.2,561.7,228.2,561.7,246.6"/>
									<path d="M632.3,246.6c0,18.5-15,33.5-33.5,33.5c-18.5,0-33.5-15-33.5-33.4s15-33.4,33.5-33.4
										C617.4,213.2,632.3,228.2,632.3,246.6"/>
									<path d="M66.9,317.7c0,18.5-15,33.5-33.5,33.5S0,336.2,0,317.7s15-33.5,33.5-33.5S66.9,299.2,66.9,317.7"/>
									<path d="M137.6,317.7c0,18.5-15,33.5-33.4,33.5s-33.4-15-33.4-33.5s15-33.5,33.4-33.5S137.6,299.2,137.6,317.7"/>
									<path d="M278.9,317.7c0,18.5-15,33.5-33.4,33.5s-33.4-15-33.4-33.5s15-33.5,33.4-33.5S278.9,299.2,278.9,317.7"/>
									<path d="M349.6,317.7c0,18.5-15,33.5-33.5,33.5s-33.5-15-33.5-33.5s15-33.5,33.5-33.5C334.6,284.3,349.6,299.2,349.6,317.7
										"/>
									<path d="M561.7,317.7c0,18.5-15,33.5-33.5,33.5c-18.5,0-33.5-15-33.5-33.5s15-33.5,33.5-33.5
										C546.7,284.3,561.7,299.2,561.7,317.7"/>
									<path d="M632.3,317.7c0,18.5-15,33.5-33.5,33.5c-18.5,0-33.5-15-33.5-33.5s15-33.5,33.5-33.5
										C617.4,284.3,632.3,299.2,632.3,317.7"/>
									<path d="M66.9,388.8c0,18.5-15,33.5-33.5,33.5S0,407.2,0,388.8s15-33.5,33.5-33.5S66.9,370.3,66.9,388.8"/>
									<path d="M137.6,388.8c0,18.5-15,33.5-33.4,33.5s-33.4-15-33.4-33.5s15-33.5,33.4-33.5S137.6,370.3,137.6,388.8"/>
									<path d="M278.9,388.8c0,18.5-15,33.5-33.4,33.5s-33.4-15-33.4-33.5s15-33.5,33.4-33.5S278.9,370.3,278.9,388.8"/>
									<path d="M349.6,388.8c0,18.5-15,33.5-33.5,33.5s-33.5-15-33.5-33.5s15-33.5,33.5-33.5C334.6,355.3,349.6,370.3,349.6,388.8
										"/>
									<path d="M561.7,388.8c0,18.5-15,33.5-33.5,33.5c-18.5,0-33.5-15-33.5-33.5s15-33.5,33.5-33.5
										C546.7,355.3,561.7,370.3,561.7,388.8"/>
									<path d="M632.3,388.8c0,18.5-15,33.5-33.5,33.5c-18.5,0-33.5-15-33.5-33.5s15-33.5,33.5-33.5S632.3,370.3,632.3,388.8"/>
									<path d="M66.9,459.8c0,18.5-15,33.5-33.5,33.5S0,478.3,0,459.8c0-18.5,15-33.5,33.5-33.5S66.9,441.4,66.9,459.8"/>
									<path d="M137.6,459.8c0,18.5-15,33.5-33.4,33.5s-33.4-15-33.4-33.5s15-33.5,33.4-33.5S137.6,441.4,137.6,459.8"/>
									<path d="M278.9,459.8c0,18.5-15,33.5-33.4,33.5s-33.4-15-33.4-33.5s15-33.5,33.4-33.5S278.9,441.4,278.9,459.8"/>
									<path d="M349.6,459.8c0,18.5-15,33.5-33.5,33.5s-33.5-15-33.5-33.5s15-33.5,33.5-33.5C334.6,426.4,349.6,441.4,349.6,459.8
										"/>
									<path d="M561.7,459.8c0,18.5-15,33.5-33.5,33.5c-18.5,0-33.5-15-33.5-33.5s15-33.5,33.5-33.5
										C546.7,426.4,561.7,441.4,561.7,459.8"/>
									<path d="M632.3,459.8c0,18.5-15,33.5-33.5,33.5c-18.5,0-33.5-15-33.5-33.5s15-33.5,33.5-33.5
										C617.4,426.4,632.3,441.4,632.3,459.8"/>
									<path d="M66.9,530.9c0,18.5-15,33.5-33.5,33.5S0,549.4,0,530.9c0-18.5,15-33.5,33.5-33.5S66.9,512.4,66.9,530.9"/>
									<path d="M137.6,530.9c0,18.5-15,33.5-33.4,33.5s-33.4-15-33.4-33.5c0-18.5,15-33.5,33.4-33.5S137.6,512.4,137.6,530.9"/>
									<path d="M208.3,530.9c0,18.5-15,33.5-33.4,33.5s-33.4-15-33.4-33.5c0-18.5,15-33.5,33.4-33.5S208.3,512.4,208.3,530.9"/>
									<path d="M278.9,530.9c0,18.5-15,33.5-33.4,33.5s-33.4-15-33.4-33.5c0-18.5,15-33.5,33.4-33.5S278.9,512.4,278.9,530.9"/>
									<path d="M349.6,530.9c0,18.5-15,33.5-33.5,33.5s-33.5-15-33.5-33.5c0-18.5,15-33.5,33.5-33.5
										C334.6,497.5,349.6,512.4,349.6,530.9"/>
									<path d="M561.7,530.9c0,18.5-15,33.5-33.5,33.5c-18.5,0-33.5-15-33.5-33.5c0-18.5,15-33.5,33.5-33.5
										C546.7,497.5,561.7,512.4,561.7,530.9"/>
									<path d="M632.3,530.9c0,18.5-15,33.5-33.5,33.5c-18.5,0-33.5-15-33.5-33.5c0-18.5,15-33.5,33.5-33.5
										C617.4,497.5,632.3,512.4,632.3,530.9"/>
									<path d="M632.3,602c0,18.5-15,33.5-33.5,33.5c-18.5,0-33.5-15-33.5-33.5c0-18.5,15-33.5,33.5-33.5
										C617.4,568.5,632.3,583.5,632.3,602"/>
									<path d="M137.6,602c0,18.5-15,33.5-33.4,33.5s-33.4-15-33.4-33.5c0-18.5,15-33.5,33.4-33.5S137.6,583.5,137.6,602"/>
									<path d="M208.3,602c0,18.5-15,33.5-33.4,33.5s-33.4-15-33.4-33.5c0-18.5,15-33.5,33.4-33.5S208.3,583.5,208.3,602"/>
									<path d="M278.9,602c0,18.5-15,33.5-33.4,33.5S212,620.5,212,602c0-18.5,15-33.5,33.4-33.5S278.9,583.5,278.9,602"/>
									<path d="M349.6,602c0,18.5-15,33.5-33.5,33.5s-33.5-15-33.5-33.5c0-18.5,15-33.5,33.5-33.5
										C334.6,568.5,349.6,583.5,349.6,602"/>
								</g>
							</g>
						</g>
					</g>
				</g>
			</g>
		</g>
	</g>
</g>
<g>
	<g>
		<g>
			<g>
				<g class="st0">
					<g>
						<g>
							<g>
								<path d="M-673.1,33.5c0,18.5-15,33.5-33.5,33.5c-18.5,0-33.5-15-33.5-33.5S-725,0-706.5,0C-688.1,0-673.1,15-673.1,33.5"/>
								<path d="M-602.4,33.5c0,18.5-15,33.5-33.5,33.5s-33.5-15-33.5-33.5S-654.3,0-635.9,0S-602.4,15-602.4,33.5"/>
								<path d="M-531.7,33.5c0,18.5-15,33.5-33.5,33.5s-33.5-15-33.5-33.5S-583.7,0-565.2,0S-531.7,15-531.7,33.5"/>
								<path d="M-461.1,33.5c0,18.5-15,33.5-33.5,33.5c-18.5,0-33.4-15-33.4-33.5S-513,0-494.5,0C-476,0-461.1,15-461.1,33.5"/>
								<path d="M-249,33.5c0,18.5-15,33.5-33.5,33.5s-33.5-15-33.5-33.5S-300.9,0-282.5,0C-264,0-249,15-249,33.5"/>
								<path d="M-178.3,33.5c0,18.5-15,33.5-33.5,33.5c-18.5,0-33.5-15-33.5-33.5S-230.3,0-211.8,0C-193.3,0-178.3,15-178.3,33.5"
									/>
								<path d="M-673.1,104.5c0,18.5-15,33.5-33.5,33.5c-18.5,0-33.5-15-33.5-33.5s15-33.5,33.5-33.5
									C-688.1,71.1-673.1,86.1-673.1,104.5"/>
								<path d="M-602.4,104.5c0,18.5-15,33.5-33.5,33.5s-33.5-15-33.5-33.4s15-33.4,33.5-33.4S-602.4,86.1-602.4,104.5"/>
								<path d="M-531.7,104.5c0,18.5-15,33.5-33.5,33.5s-33.5-15-33.5-33.4s15-33.4,33.5-33.4S-531.7,86.1-531.7,104.5"/>
								<path d="M-531.7,33.5c0,18.5-15,33.5-33.5,33.5s-33.5-15-33.5-33.5S-583.7,0-565.2,0S-531.7,15-531.7,33.5"/>
								<path d="M-461.1,104.5c0,18.5-15,33.5-33.5,33.5c-18.5,0-33.4-15-33.4-33.4s15-33.4,33.4-33.4
									C-476,71.1-461.1,86.1-461.1,104.5"/>
								<path d="M-390.4,104.5c0,18.5-15,33.5-33.5,33.5s-33.5-15-33.5-33.4s15-33.4,33.5-33.4C-405.4,71.1-390.4,86.1-390.4,104.5"
									/>
								<path d="M-178.3,104.5c0,18.5-15,33.5-33.5,33.5c-18.5,0-33.5-15-33.5-33.4s15-33.4,33.5-33.4
									C-193.3,71.1-178.3,86.1-178.3,104.5"/>
								<path d="M-107.7,104.5c0,18.5-15,33.5-33.5,33.5c-18.5,0-33.5-15-33.5-33.4s15-33.4,33.5-33.4
									C-122.6,71.1-107.7,86.1-107.7,104.5"/>
								<path d="M-673.1,175.6c0,18.5-15,33.4-33.5,33.4c-18.5,0-33.5-15-33.5-33.4s15-33.4,33.5-33.4
									C-688.1,142.1-673.1,157.1-673.1,175.6"/>
								<path d="M-602.4,175.6c0,18.5-15,33.4-33.5,33.4s-33.5-15-33.5-33.4s15-33.4,33.5-33.4S-602.4,157.1-602.4,175.6"/>
								<path d="M-461.1,175.6c0,18.5-15,33.4-33.5,33.4c-18.5,0-33.4-15-33.4-33.4s15-33.4,33.4-33.4
									C-476,142.1-461.1,157.1-461.1,175.6"/>
								<path d="M-390.4,175.6c0,18.5-15,33.4-33.5,33.4s-33.5-15-33.5-33.4s15-33.4,33.5-33.4
									C-405.4,142.1-390.4,157.1-390.4,175.6"/>
								<path d="M-178.3,175.6c0,18.5-15,33.4-33.5,33.4c-18.5,0-33.5-15-33.5-33.4s15-33.4,33.5-33.4
									C-193.3,142.1-178.3,157.1-178.3,175.6"/>
								<path d="M-107.7,175.6c0,18.5-15,33.4-33.5,33.4c-18.5,0-33.5-15-33.5-33.4s15-33.4,33.5-33.4S-107.7,157.1-107.7,175.6"/>
								<path d="M-673.1,246.6c0,18.5-15,33.5-33.5,33.5c-18.5,0-33.5-15-33.5-33.5s15-33.4,33.5-33.4
									C-688.1,213.2-673.1,228.2-673.1,246.6"/>
								<path d="M-602.4,246.6c0,18.5-15,33.5-33.5,33.5s-33.5-15-33.5-33.4s15-33.4,33.5-33.4S-602.4,228.2-602.4,246.6"/>
								<path d="M-461.1,246.6c0,18.5-15,33.5-33.5,33.5c-18.5,0-33.4-15-33.4-33.4s15-33.4,33.4-33.4
									C-476,213.2-461.1,228.2-461.1,246.6"/>
								<path d="M-390.4,246.6c0,18.5-15,33.5-33.5,33.5s-33.5-15-33.5-33.4s15-33.4,33.5-33.4
									C-405.4,213.2-390.4,228.2-390.4,246.6"/>
								<path d="M-178.3,246.6c0,18.5-15,33.5-33.5,33.5c-18.5,0-33.5-15-33.5-33.4s15-33.4,33.5-33.4
									C-193.3,213.2-178.3,228.2-178.3,246.6"/>
								<path d="M-107.7,246.6c0,18.5-15,33.5-33.5,33.5c-18.5,0-33.5-15-33.5-33.4s15-33.4,33.5-33.4
									C-122.6,213.2-107.7,228.2-107.7,246.6"/>
								<path d="M-673.1,317.7c0,18.5-15,33.5-33.5,33.5c-18.5,0-33.5-15-33.5-33.5s15-33.5,33.5-33.5
									C-688.1,284.3-673.1,299.2-673.1,317.7"/>
								<path d="M-602.4,317.7c0,18.5-15,33.5-33.5,33.5s-33.5-15-33.5-33.5s15-33.5,33.5-33.5S-602.4,299.2-602.4,317.7"/>
								<path d="M-461.1,317.7c0,18.5-15,33.5-33.5,33.5c-18.5,0-33.4-15-33.4-33.5s15-33.5,33.4-33.5
									C-476,284.3-461.1,299.2-461.1,317.7"/>
								<path d="M-390.4,317.7c0,18.5-15,33.5-33.5,33.5s-33.5-15-33.5-33.5s15-33.5,33.5-33.5
									C-405.4,284.3-390.4,299.2-390.4,317.7"/>
								<path d="M-178.3,317.7c0,18.5-15,33.5-33.5,33.5c-18.5,0-33.5-15-33.5-33.5s15-33.5,33.5-33.5
									C-193.3,284.3-178.3,299.2-178.3,317.7"/>
								<path d="M-107.7,317.7c0,18.5-15,33.5-33.5,33.5c-18.5,0-33.5-15-33.5-33.5s15-33.5,33.5-33.5
									C-122.6,284.3-107.7,299.2-107.7,317.7"/>
								<path d="M-673.1,388.8c0,18.5-15,33.5-33.5,33.5c-18.5,0-33.5-15-33.5-33.5s15-33.5,33.5-33.5
									C-688.1,355.3-673.1,370.3-673.1,388.8"/>
								<path d="M-602.4,388.8c0,18.5-15,33.5-33.5,33.5s-33.5-15-33.5-33.5s15-33.5,33.5-33.5S-602.4,370.3-602.4,388.8"/>
								<path d="M-461.1,388.8c0,18.5-15,33.5-33.5,33.5c-18.5,0-33.4-15-33.4-33.5s15-33.5,33.4-33.5
									C-476,355.3-461.1,370.3-461.1,388.8"/>
								<path d="M-390.4,388.8c0,18.5-15,33.5-33.5,33.5s-33.5-15-33.5-33.5s15-33.5,33.5-33.5
									C-405.4,355.3-390.4,370.3-390.4,388.8"/>
								<path d="M-178.3,388.8c0,18.5-15,33.5-33.5,33.5c-18.5,0-33.5-15-33.5-33.5s15-33.5,33.5-33.5
									C-193.3,355.3-178.3,370.3-178.3,388.8"/>
								<path d="M-107.7,388.8c0,18.5-15,33.5-33.5,33.5c-18.5,0-33.5-15-33.5-33.5s15-33.5,33.5-33.5S-107.7,370.3-107.7,388.8"/>
								<path d="M-673.1,459.8c0,18.5-15,33.5-33.5,33.5c-18.5,0-33.5-15-33.5-33.5c0-18.5,15-33.5,33.5-33.5
									C-688.1,426.4-673.1,441.4-673.1,459.8"/>
								<path d="M-602.4,459.8c0,18.5-15,33.5-33.5,33.5s-33.5-15-33.5-33.5s15-33.5,33.5-33.5S-602.4,441.4-602.4,459.8"/>
								<path d="M-461.1,459.8c0,18.5-15,33.5-33.5,33.5c-18.5,0-33.4-15-33.4-33.5s15-33.5,33.4-33.5
									C-476,426.4-461.1,441.4-461.1,459.8"/>
								<path d="M-390.4,459.8c0,18.5-15,33.5-33.5,33.5s-33.5-15-33.5-33.5s15-33.5,33.5-33.5
									C-405.4,426.4-390.4,441.4-390.4,459.8"/>
								<path d="M-178.3,459.8c0,18.5-15,33.5-33.5,33.5c-18.5,0-33.5-15-33.5-33.5s15-33.5,33.5-33.5
									C-193.3,426.4-178.3,441.4-178.3,459.8"/>
								<path d="M-107.7,459.8c0,18.5-15,33.5-33.5,33.5c-18.5,0-33.5-15-33.5-33.5s15-33.5,33.5-33.5
									C-122.6,426.4-107.7,441.4-107.7,459.8"/>
								<path d="M-673.1,530.9c0,18.5-15,33.5-33.5,33.5c-18.5,0-33.5-15-33.5-33.5c0-18.5,15-33.5,33.5-33.5
									C-688.1,497.5-673.1,512.4-673.1,530.9"/>
								<path d="M-602.4,530.9c0,18.5-15,33.5-33.5,33.5s-33.5-15-33.5-33.5c0-18.5,15-33.5,33.5-33.5S-602.4,512.4-602.4,530.9"/>
								<path d="M-531.7,530.9c0,18.5-15,33.5-33.5,33.5s-33.5-15-33.5-33.5c0-18.5,15-33.5,33.5-33.5S-531.7,512.4-531.7,530.9"/>
								<path d="M-461.1,530.9c0,18.5-15,33.5-33.5,33.5c-18.5,0-33.4-15-33.4-33.5c0-18.5,15-33.5,33.4-33.5
									C-476,497.5-461.1,512.4-461.1,530.9"/>
								<path d="M-390.4,530.9c0,18.5-15,33.5-33.5,33.5s-33.5-15-33.5-33.5c0-18.5,15-33.5,33.5-33.5
									C-405.4,497.5-390.4,512.4-390.4,530.9"/>
								<path d="M-178.3,530.9c0,18.5-15,33.5-33.5,33.5c-18.5,0-33.5-15-33.5-33.5c0-18.5,15-33.5,33.5-33.5
									C-193.3,497.5-178.3,512.4-178.3,530.9"/>
								<path d="M-107.7,530.9c0,18.5-15,33.5-33.5,33.5c-18.5,0-33.5-15-33.5-33.5c0-18.5,15-33.5,33.5-33.5
									C-122.6,497.5-107.7,512.4-107.7,530.9"/>
								<path d="M-107.7,602c0,18.5-15,33.5-33.5,33.5c-18.5,0-33.5-15-33.5-33.5c0-18.5,15-33.5,33.5-33.5
									C-122.6,568.5-107.7,583.5-107.7,602"/>
								<path d="M-602.4,602c0,18.5-15,33.5-33.5,33.5s-33.5-15-33.5-33.5c0-18.5,15-33.5,33.5-33.5S-602.4,583.5-602.4,602"/>
								<path d="M-531.7,602c0,18.5-15,33.5-33.5,33.5s-33.5-15-33.5-33.5c0-18.5,15-33.5,33.5-33.5S-531.7,583.5-531.7,602"/>
								<path d="M-461.1,602c0,18.5-15,33.5-33.5,33.5c-18.5,0-33.4-15-33.4-33.5c0-18.5,15-33.5,33.4-33.5
									C-476,568.5-461.1,583.5-461.1,602"/>
								<path d="M-390.4,602c0,18.5-15,33.5-33.5,33.5s-33.5-15-33.5-33.5c0-18.5,15-33.5,33.5-33.5
									C-405.4,568.5-390.4,583.5-390.4,602"/>
							</g>
						</g>
					</g>
				</g>
			</g>
		</g>
	</g>
</g>
</svg>
