<?xml version="1.0" encoding="utf-8"?>
<!-- Generator: Adobe Illustrator 22.0.0, SVG Export Plug-In . SVG Version: 6.00 Build 0)  -->
<svg version="1.1" id="Layer_1" xmlns="http://www.w3.org/2000/svg" xmlns:xlink="http://www.w3.org/1999/xlink" x="0px" y="0px"
	 viewBox="0 0 130 130" style="enable-background:new 0 0 130 130;" xml:space="preserve">
<style type="text/css">
	.st0{fill:none;stroke:#000000;stroke-width:6.5;}
</style>
<path class="st0" d="M55.9,47.4c-2.1-10.1-0.1-20.6,5.6-29.1c0-0.1,0-0.1,0-0.2c0,0,0,0-0.1,0c-25.9,3.3-44.1,27-40.8,52.9
	s27,44.1,52.9,40.8c21.1-2.7,37.8-19.3,40.7-40.4c0-0.2-0.1-0.3-0.2-0.3c-0.1,0-0.1,0-0.2,0c-8.5,5.6-18.8,7.5-28.7,5.5
	C70.4,73.6,59,62.1,55.9,47.4z"/>
</svg>
