<?xml version="1.0" encoding="utf-8"?>
<!-- Generator: Adobe Illustrator 22.0.0, SVG Export Plug-In . SVG Version: 6.00 Build 0)  -->
<svg version="1.1" id="Calque_1" xmlns="http://www.w3.org/2000/svg" xmlns:xlink="http://www.w3.org/1999/xlink" x="0px" y="0px"
	 viewBox="0 0 632.3 635.4" style="enable-background:new 0 0 632.3 635.4;" xml:space="preserve">
<style type="text/css">
	.st0{opacity:0.696;enable-background:new    ;}
	.st1{fill:#FFFFFF;}
</style>
<g>
	<g>
		<g>
			<g>
				<g>
					<g class="st0">
						<g>
							<g>
								<g>
									<path class="st1" d="M66.9,33.5c0,18.5-15,33.5-33.5,33.5S0,51.9,0,33.5S15,0,33.5,0S66.9,15,66.9,33.5"/>
									<path class="st1" d="M137.6,33.5c0,18.5-15,33.5-33.4,33.5s-33.5-15-33.5-33.5S85.7,0,104.1,0S137.6,15,137.6,33.5"/>
									<path class="st1" d="M208.3,33.5c0,18.5-15,33.5-33.4,33.5s-33.4-15-33.4-33.5S156.3,0,174.8,0S208.3,15,208.3,33.5"/>
									<path class="st1" d="M278.9,33.5c0,18.5-15,33.5-33.4,33.5S212,51.9,212,33.5S227,0,245.5,0S278.9,15,278.9,33.5"/>
									<path class="st1" d="M491,33.5c0,18.5-15,33.5-33.5,33.5s-33.5-15-33.5-33.5S439.1,0,457.5,0C476,0,491,15,491,33.5"/>
									<path class="st1" d="M561.7,33.5c0,18.5-15,33.5-33.5,33.5c-18.5,0-33.5-15-33.5-33.5S509.7,0,528.2,0
										C546.7,0,561.7,15,561.7,33.5"/>
									<path class="st1" d="M66.9,104.5c0,18.5-15,33.5-33.5,33.5S0,123,0,104.5s15-33.5,33.5-33.5S66.9,86.1,66.9,104.5"/>
									<path class="st1" d="M137.6,104.5c0,18.5-15,33.5-33.4,33.5s-33.4-15-33.4-33.4s15-33.4,33.4-33.4S137.6,86.1,137.6,104.5"
										/>
									<path class="st1" d="M208.3,104.5c0,18.5-15,33.5-33.4,33.5s-33.4-15-33.4-33.4s15-33.4,33.4-33.4S208.3,86.1,208.3,104.5"
										/>
									<path class="st1" d="M208.3,33.5c0,18.5-15,33.5-33.4,33.5s-33.4-15-33.4-33.5S156.3,0,174.8,0S208.3,15,208.3,33.5"/>
									<path class="st1" d="M278.9,104.5c0,18.5-15,33.5-33.4,33.5S212,123,212,104.5s15-33.4,33.4-33.4S278.9,86.1,278.9,104.5"
										/>
									<path class="st1" d="M349.6,104.5c0,18.5-15,33.5-33.5,33.5s-33.5-15-33.5-33.4s15-33.4,33.5-33.4
										C334.6,71.1,349.6,86.1,349.6,104.5"/>
									<path class="st1" d="M561.7,104.5c0,18.5-15,33.5-33.5,33.5c-18.5,0-33.5-15-33.5-33.4s15-33.4,33.5-33.4
										C546.7,71.1,561.7,86.1,561.7,104.5"/>
									<path class="st1" d="M632.3,104.5c0,18.5-15,33.5-33.5,33.5c-18.5,0-33.5-15-33.5-33.4s15-33.4,33.5-33.4
										C617.4,71.1,632.3,86.1,632.3,104.5"/>
									<path class="st1" d="M66.9,175.6c0,18.5-15,33.4-33.5,33.4S0,194.1,0,175.6s15-33.4,33.5-33.4S66.9,157.1,66.9,175.6"/>
									<path class="st1" d="M137.6,175.6c0,18.5-15,33.4-33.4,33.4s-33.4-15-33.4-33.4s15-33.4,33.4-33.4S137.6,157.1,137.6,175.6
										"/>
									<path class="st1" d="M278.9,175.6c0,18.5-15,33.4-33.4,33.4s-33.4-15-33.4-33.4s15-33.4,33.4-33.4S278.9,157.1,278.9,175.6
										"/>
									<path class="st1" d="M349.6,175.6c0,18.5-15,33.4-33.5,33.4s-33.5-15-33.5-33.4s15-33.4,33.5-33.4
										C334.6,142.1,349.6,157.1,349.6,175.6"/>
									<path class="st1" d="M561.7,175.6c0,18.5-15,33.4-33.5,33.4c-18.5,0-33.5-15-33.5-33.4s15-33.4,33.5-33.4
										C546.7,142.1,561.7,157.1,561.7,175.6"/>
									<path class="st1" d="M632.3,175.6c0,18.5-15,33.4-33.5,33.4c-18.5,0-33.5-15-33.5-33.4s15-33.4,33.5-33.4
										S632.3,157.1,632.3,175.6"/>
									<path class="st1" d="M66.9,246.6c0,18.5-15,33.5-33.5,33.5S0,265.1,0,246.6s15-33.4,33.5-33.4S66.9,228.2,66.9,246.6"/>
									<path class="st1" d="M137.6,246.6c0,18.5-15,33.5-33.4,33.5s-33.4-15-33.4-33.4s15-33.4,33.4-33.4S137.6,228.2,137.6,246.6
										"/>
									<path class="st1" d="M278.9,246.6c0,18.5-15,33.5-33.4,33.5s-33.4-15-33.4-33.4s15-33.4,33.4-33.4S278.9,228.2,278.9,246.6
										"/>
									<path class="st1" d="M349.6,246.6c0,18.5-15,33.5-33.5,33.5s-33.5-15-33.5-33.4s15-33.4,33.5-33.4
										C334.6,213.2,349.6,228.2,349.6,246.6"/>
									<path class="st1" d="M561.7,246.6c0,18.5-15,33.5-33.5,33.5c-18.5,0-33.5-15-33.5-33.4s15-33.4,33.5-33.4
										C546.7,213.2,561.7,228.2,561.7,246.6"/>
									<path class="st1" d="M632.3,246.6c0,18.5-15,33.5-33.5,33.5c-18.5,0-33.5-15-33.5-33.4s15-33.4,33.5-33.4
										C617.4,213.2,632.3,228.2,632.3,246.6"/>
									<path class="st1" d="M66.9,317.7c0,18.5-15,33.5-33.5,33.5S0,336.2,0,317.7s15-33.5,33.5-33.5S66.9,299.2,66.9,317.7"/>
									<path class="st1" d="M137.6,317.7c0,18.5-15,33.5-33.4,33.5s-33.4-15-33.4-33.5s15-33.5,33.4-33.5S137.6,299.2,137.6,317.7
										"/>
									<path class="st1" d="M278.9,317.7c0,18.5-15,33.5-33.4,33.5s-33.4-15-33.4-33.5s15-33.5,33.4-33.5S278.9,299.2,278.9,317.7
										"/>
									<path class="st1" d="M349.6,317.7c0,18.5-15,33.5-33.5,33.5s-33.5-15-33.5-33.5s15-33.5,33.5-33.5
										C334.6,284.3,349.6,299.2,349.6,317.7"/>
									<path class="st1" d="M561.7,317.7c0,18.5-15,33.5-33.5,33.5c-18.5,0-33.5-15-33.5-33.5s15-33.5,33.5-33.5
										C546.7,284.3,561.7,299.2,561.7,317.7"/>
									<path class="st1" d="M632.3,317.7c0,18.5-15,33.5-33.5,33.5c-18.5,0-33.5-15-33.5-33.5s15-33.5,33.5-33.5
										C617.4,284.3,632.3,299.2,632.3,317.7"/>
									<path class="st1" d="M66.9,388.8c0,18.5-15,33.5-33.5,33.5S0,407.2,0,388.8s15-33.5,33.5-33.5S66.9,370.3,66.9,388.8"/>
									<path class="st1" d="M137.6,388.8c0,18.5-15,33.5-33.4,33.5s-33.4-15-33.4-33.5s15-33.5,33.4-33.5S137.6,370.3,137.6,388.8
										"/>
									<path class="st1" d="M278.9,388.8c0,18.5-15,33.5-33.4,33.5s-33.4-15-33.4-33.5s15-33.5,33.4-33.5S278.9,370.3,278.9,388.8
										"/>
									<path class="st1" d="M349.6,388.8c0,18.5-15,33.5-33.5,33.5s-33.5-15-33.5-33.5s15-33.5,33.5-33.5
										C334.6,355.3,349.6,370.3,349.6,388.8"/>
									<path class="st1" d="M561.7,388.8c0,18.5-15,33.5-33.5,33.5c-18.5,0-33.5-15-33.5-33.5s15-33.5,33.5-33.5
										C546.7,355.3,561.7,370.3,561.7,388.8"/>
									<path class="st1" d="M632.3,388.8c0,18.5-15,33.5-33.5,33.5c-18.5,0-33.5-15-33.5-33.5s15-33.5,33.5-33.5
										S632.3,370.3,632.3,388.8"/>
									<path class="st1" d="M66.9,459.8c0,18.5-15,33.5-33.5,33.5S0,478.3,0,459.8c0-18.5,15-33.5,33.5-33.5
										S66.9,441.4,66.9,459.8"/>
									<path class="st1" d="M137.6,459.8c0,18.5-15,33.5-33.4,33.5s-33.4-15-33.4-33.5s15-33.5,33.4-33.5S137.6,441.4,137.6,459.8
										"/>
									<path class="st1" d="M278.9,459.8c0,18.5-15,33.5-33.4,33.5s-33.4-15-33.4-33.5s15-33.5,33.4-33.5S278.9,441.4,278.9,459.8
										"/>
									<path class="st1" d="M349.6,459.8c0,18.5-15,33.5-33.5,33.5s-33.5-15-33.5-33.5s15-33.5,33.5-33.5
										C334.6,426.4,349.6,441.4,349.6,459.8"/>
									<path class="st1" d="M561.7,459.8c0,18.5-15,33.5-33.5,33.5c-18.5,0-33.5-15-33.5-33.5s15-33.5,33.5-33.5
										C546.7,426.4,561.7,441.4,561.7,459.8"/>
									<path class="st1" d="M632.3,459.8c0,18.5-15,33.5-33.5,33.5c-18.5,0-33.5-15-33.5-33.5s15-33.5,33.5-33.5
										C617.4,426.4,632.3,441.4,632.3,459.8"/>
									<path class="st1" d="M66.9,530.9c0,18.5-15,33.5-33.5,33.5S0,549.4,0,530.9c0-18.5,15-33.5,33.5-33.5
										S66.9,512.4,66.9,530.9"/>
									<path class="st1" d="M137.6,530.9c0,18.5-15,33.5-33.4,33.5s-33.4-15-33.4-33.5c0-18.5,15-33.5,33.4-33.5
										S137.6,512.4,137.6,530.9"/>
									<path class="st1" d="M208.3,530.9c0,18.5-15,33.5-33.4,33.5s-33.4-15-33.4-33.5c0-18.5,15-33.5,33.4-33.5
										S208.3,512.4,208.3,530.9"/>
									<path class="st1" d="M278.9,530.9c0,18.5-15,33.5-33.4,33.5s-33.4-15-33.4-33.5c0-18.5,15-33.5,33.4-33.5
										S278.9,512.4,278.9,530.9"/>
									<path class="st1" d="M349.6,530.9c0,18.5-15,33.5-33.5,33.5s-33.5-15-33.5-33.5c0-18.5,15-33.5,33.5-33.5
										C334.6,497.5,349.6,512.4,349.6,530.9"/>
									<path class="st1" d="M561.7,530.9c0,18.5-15,33.5-33.5,33.5c-18.5,0-33.5-15-33.5-33.5c0-18.5,15-33.5,33.5-33.5
										C546.7,497.5,561.7,512.4,561.7,530.9"/>
									<path class="st1" d="M632.3,530.9c0,18.5-15,33.5-33.5,33.5c-18.5,0-33.5-15-33.5-33.5c0-18.5,15-33.5,33.5-33.5
										C617.4,497.5,632.3,512.4,632.3,530.9"/>
									<path class="st1" d="M632.3,602c0,18.5-15,33.5-33.5,33.5c-18.5,0-33.5-15-33.5-33.5c0-18.5,15-33.5,33.5-33.5
										C617.4,568.5,632.3,583.5,632.3,602"/>
									<path class="st1" d="M137.6,602c0,18.5-15,33.5-33.4,33.5s-33.4-15-33.4-33.5c0-18.5,15-33.5,33.4-33.5
										S137.6,583.5,137.6,602"/>
									<path class="st1" d="M208.3,602c0,18.5-15,33.5-33.4,33.5s-33.4-15-33.4-33.5c0-18.5,15-33.5,33.4-33.5
										S208.3,583.5,208.3,602"/>
									<path class="st1" d="M278.9,602c0,18.5-15,33.5-33.4,33.5S212,620.5,212,602c0-18.5,15-33.5,33.4-33.5
										S278.9,583.5,278.9,602"/>
									<path class="st1" d="M349.6,602c0,18.5-15,33.5-33.5,33.5s-33.5-15-33.5-33.5c0-18.5,15-33.5,33.5-33.5
										C334.6,568.5,349.6,583.5,349.6,602"/>
								</g>
							</g>
						</g>
					</g>
				</g>
			</g>
		</g>
	</g>
</g>
</svg>
